HIERARCHY
ROOT Hips
{
  OFFSET 8.23771 95.6515 -326.083
  CHANNELS 6 Xposition Yposition Zposition Zrotation Xrotation Yrotation
  JOINT ToSpine
  {
    OFFSET -0.0105055 1.38907 -7.13956
    CHANNELS 3 Zrotation Xrotation Yrotation
    JOINT Spine
    {
      OFFSET 0.0105055 10 1
      CHANNELS 3 Zrotation Xrotation Yrotation
      JOINT Spine1
      {
        OFFSET 0 12 1.60637
        CHANNELS 3 Zrotation Xrotation Yrotation
        JOINT Neck
        {
          OFFSET 0 27 2.26658
          CHANNELS 3 Zrotation Xrotation Yrotation
          JOINT Head
          {
            OFFSET 0 9 2.12705
            CHANNELS 3 Zrotation Xrotation Yrotation
            End Site
            {
              OFFSET 0 11 2
            }
          }
        }
        JOINT LeftShoulder
        {
          OFFSET 8 19.6109 2.86452
          CHANNELS 3 Zrotation Xrotation Yrotation
          JOINT LeftArm
          {
            OFFSET 12 1 0.681055
            CHANNELS 3 Zrotation Xrotation Yrotation
            JOINT LeftForeArm
            {
              OFFSET 19 0 -1.52608
              CHANNELS 3 Zrotation Xrotation Yrotation
              JOINT LeftHand
              {
                OFFSET 23 0 0
                CHANNELS 3 Zrotation Xrotation Yrotation
                End Site
                {
                  OFFSET 10 0 0
                }
              }
            }
          }
        }
        JOINT RightShoulder
        {
          OFFSET -8 19.6109 2.86452
          CHANNELS 3 Zrotation Xrotation Yrotation
          JOINT RightArm
          {
            OFFSET -12 1 0.681055
            CHANNELS 3 Zrotation Xrotation Yrotation
            JOINT RightForeArm
            {
              OFFSET -19 0 -1.52608
              CHANNELS 3 Zrotation Xrotation Yrotation
              JOINT RightHand
              {
                OFFSET -23 0 0
                CHANNELS 3 Zrotation Xrotation Yrotation
                End Site
                {
                  OFFSET -10 0 0
                }
              }
            }
          }
        }
      }
    }
  }
  JOINT LeftUpLeg
  {
    OFFSET 9 -7.17245 0
    CHANNELS 3 Zrotation Xrotation Yrotation
    JOINT LeftLeg
    {
      OFFSET 0 -44.1113 0
      CHANNELS 3 Zrotation Xrotation Yrotation
      JOINT LeftFoot
      {
        OFFSET 0 -36.1829 0
        CHANNELS 3 Zrotation Xrotation Yrotation
        JOINT LeftToeBase
        {
          OFFSET 0 -4.84184 13
          CHANNELS 3 Zrotation Xrotation Yrotation
          End Site
          {
            OFFSET 0 1 6
          }
        }
      }
    }
  }
  JOINT RightUpLeg
  {
    OFFSET -9 -7.17245 0
    CHANNELS 3 Zrotation Xrotation Yrotation
    JOINT RightLeg
    {
      OFFSET 0 -44.0551 0
      CHANNELS 3 Zrotation Xrotation Yrotation
      JOINT RightFoot
      {
        OFFSET 0 -36.1469 0
        CHANNELS 3 Zrotation Xrotation Yrotation
        JOINT RightToeBase
        {
          OFFSET 0 -4.92256 13
          CHANNELS 3 Zrotation Xrotation Yrotation
          End Site
          {
            OFFSET 0 1 6
          }
        }
      }
    }
  }
}
MOTION
Frames:	8
Frame Time:	0.0333333
8.23771 95.6515 -326.083 10.8399 -0.00800169 -9.8694 0 0 0 15.4146 -20.0575 11.9898 -29.7324 24.1664 18.5757 -0.417351 11.551 1.83195 -0.710286 2.09888 1.85048 -36.5443 2.43266 -2.19558 -44.05 9.08998 11.641 -5.35677 -20.1442 -12.797 -10.1384 -0.0144763 0.163195 24.6408 5.70896 14.8535 54.8025 22.3853 10.8097 4.44747 -0.277528 10.7657 1.355 0.0282577 2.38927 -11.7716 -23.5309 -0.594387 -3.18908 20.9257 2.38594 1.45204 -2.32134 0.0294203 0.723672 -2.41227 -2.58857 -11.4811 24.019 -13.615 4.57542 2.44506e-006 9.5681 -30.24 -2.26968 -0.61333 10.5664 -43.5174 -6.84118 
8.23771 96.2936 -324.087 9.83478 -1.29219 -7.86052 0 0 0 14.1125 -17.1326 9.96032 -26.872 22.5607 16.1112 -1.72065 11.7376 1.99904 -0.0677479 0.681021 1.35243 -37.198 2.89896 -3.1804 -42.6625 9.20573 8.60614 -5.24282 -21.6119 -10.1546 -9.64412 0.0329468 -0.390548 23.1129 5.50338 15.063 55.5814 21.3136 11.0891 4.45117 -0.395756 9.83429 2.23479 0.0629295 3.22553 -12.0271 -21.0419 -1.36984 -3.34747 22.1494 -0.643226 4.90851 -2.5997 0.111445 0.150695 -0.793463 -0.426672 -9.97948 25.6085 -13.6582 3.31964 2.17207 8.70919 -24.9614 0.17401 0.0385156 10.9581 -43.2778 -5.3334 
8.24 97.2058 -321.892 8.5051 -2.6337 -6.29894 0 0 0 12.8027 -12.9477 7.61547 -23.2299 18.8849 13.1162 -2.45957 12.2352 2.03949 -0.171567 -0.0631587 1.11703 -38.1342 3.07525 -3.43061 -40.5612 13.3966 5.35786 -5.51425 -25.9466 -6.92449 -10.0499 0.0332477 -0.378123 22.4124 5.54603 15.6282 55.4872 21.6948 10.1626 4.91615 -2.21541 9.72339 3.12269 0.113388 4.15807 -11.5724 -17.3191 -1.87074 -2.97985 21.1068 -1.871 7.55577 -1.90617 0.12588 -0.218611 -2.62449 1.78863 -8.74029 26.3056 -13.9438 -0.177907 6.74428 7.79202 -2.12488 -1.54257 -0.0286089 10.4104 -31.8018 8.11204 
8.40632 97.7657 -320.139 7.56551 -3.86188 -7.66162 0 0 0 13.4726 -5.45963 6.55439 -22.9295 11.4289 11.7284 -1.99941 12.8105 1.99816 0.131527 0.105822 1.18445 -37.4223 3.14625 -3.71074 -39.8919 11.4488 2.83397 -4.12252 -22.7256 -3.31707 -10.2089 0.136475 -1.52773 22.5976 5.58937 15.6606 56.0172 20.7969 8.28409 4.36001 -0.934835 10.2298 4.52884 0.110418 2.79185 -10.3791 -14.699 0.31391 -3.19302 21.07 -2.87406 8.30109 -2.89859 0.210388 -0.181335 -2.78525 1.67624 -10.2928 21.6507 -9.94788 -2.59106 20.1286 7.06657 15.9166 -7.1999 1.00784 3.26407 -12.8471 17.4111 
8.33862 98.1406 -317.925 6.52819 -5.16858 -8.69988 0 0 0 12.9337 -0.732213 5.83426 -21.1562 7.51576 10.592 -1.67993 12.5919 2.06685 -0.0744079 -0.0779053 1.43211 -37.4852 3.15948 -3.7302 -38.7828 11.9194 0.909125 -3.91849 -19.2877 -3.34924 -9.98081 0.133992 -1.5344 22.2217 5.48627 15.5427 56.2432 20.6993 6.91613 4.59498 -2.06876 10.1986 5.33843 0.183569 3.93599 -8.93841 -11.5105 3.39257 -3.56671 20.9643 -4.05107 9.27581 -4.75747 0.386166 -0.147022 -3.14111 1.64822 -11.0779 17.2644 -9.39471 5.60886e-007 31.3326 10.0107 -9.76013 4.40542 0.376318 11.396 -33.8026 9.02703 
8.37738 98.401 -315.672 6.23327 -5.6442 -9.16735 0 0 0 12.4865 1.43283 5.11125 -20.7109 5.43927 9.62224 -0.698605 12.9744 1.92091 -0.333158 -0.434262 1.73758 -36.9702 3.18064 -3.8685 -37.5896 13.1932 -0.803228 -4.39394 -21.5933 -4.23889 -10.079 0.178872 -2.02821 22.7539 5.66508 15.8188 55.1767 19.2935 5.97408 3.30499 2.21454 10.4107 6.33988 0.132801 2.39754 -8.92055 -9.37316 3.47229 -3.63098 20.9894 -4.02594 9.42234 -6.31465 0.520922 -0.0247169 -2.30165 0.791696 -12.5353 12.4254 -9.12709 2.95978e-007 41.6021 13.0832 -12.1129 10.6739 1.13576 9.06387 -31.6848 1.02358 
8.33036 98.5888 -313.188 6.2394 -6.41066 -9.68693 0 0 0 11.1574 2.55676 4.63197 -19.4808 5.03504 8.86121 -0.0317856 12.5048 1.97684 -0.700473 -0.462609 2.14416 -36.2234 3.21054 -4.07274 -36.9224 13.3134 -3.56873 -4.21357 -19.6925 -4.28316 -10.2708 0.178639 -1.98754 22.53 5.51626 15.4553 54.5694 20.0838 5.83139 4.53522 -1.83261 9.87391 2.20544 0.0677951 3.521 -9.56554 -6.50971 2.45793 -3.68601 20.2296 -2.67625 10.0438 -7.65034 0.673259 -0.381841 -2.61721 2.53422 -14.075 7.90027 -7.45437 4.38056e-007 50.0088 15.5785 -9.96928 13.0145 1.13998 5.86929 -22.21 -2.55448 
8.10402 98.4846 -311.103 6.04176 -7.03654 -10.6391 0 0 0 9.48531 3.93557 4.26016 -17.9147 4.56334 7.92468 0.30685 12.5894 2.24531 -0.706439 -1.18662 2.55348 -36.2359 3.22694 -4.10906 -35.3681 15.7761 -5.93731 -5.44428 -22.5134 -6.50123 -8.70176 0.152509 -2.00429 22.8394 5.66766 15.7748 53.5866 18.0203 5.08361 3.88751 -1.41946 10.2701 1.29536 0.0258776 2.28881 -9.78216 -4.71037 2.22401 -3.61732 20.9866 -1.64797 10.0633 -9.80401 0.865292 0.0205992 -1.20705 0.251637 -14.6172 3.04461 -4.66228 5.68079e-007 56.8042 17.5966 -9.66608 6.25535 0.529432 5.18982 -19.2072 -0.595935 
